<svg width="180" height="38" viewBox="0 0 180 38" fill="none" xmlns="http://www.w3.org/2000/svg">
  <!-- Main Bot Icon -->
  <rect x="5" y="5" width="28" height="28" rx="8" fill="#3B82F6"/>
  <circle cx="15" cy="18" r="3" fill="white"/>
  <circle cx="23" cy="18" r="3" fill="white"/>
  <path d="M13 25H25" stroke="white" stroke-width="2" stroke-linecap="round"/>
  <path d="M33 14V24C33 27.3137 30.3137 30 27 30H11C7.68629 30 5 27.3137 5 24V14C5 10.6863 7.68629 8 11 8H27C30.3137 8 33 10.6863 33 14Z" stroke="white" stroke-width="2"/>
  <path d="M33 16H38C39.1046 16 40 16.8954 40 18V20C40 21.1046 39.1046 22 38 22H33" stroke="white" stroke-width="2"/>
  
  <!-- Text -->
  <path d="M50 12H54.5C56.5 12 58 12.5 59 13.5C60 14.5 60.5 16 60.5 18C60.5 20 60 21.5 59 22.5C58 23.5 56.5 24 54.5 24H50V12ZM54.5 22C55.8333 22 56.8333 21.6667 57.5 21C58.1667 20.3333 58.5 19.3333 58.5 18C58.5 16.6667 58.1667 15.6667 57.5 15C56.8333 14.3333 55.8333 14 54.5 14H52V22H54.5Z" fill="#333333"/>
  <path d="M62 24V12H70V14H64V17H69V19H64V22H70V24H62Z" fill="#333333"/>
  <path d="M76 24H74V14H71V12H79V14H76V24Z" fill="#333333"/>
  <path d="M87 24H80V12H82V22H87V24Z" fill="#333333"/>
  <path d="M88 18C88 16.6667 88.3333 15.5 89 14.5C89.6667 13.5 90.6667 13 92 13C93.3333 13 94.3333 13.5 95 14.5C95.6667 15.5 96 16.6667 96 18C96 19.3333 95.6667 20.5 95 21.5C94.3333 22.5 93.3333 23 92 23C90.6667 23 89.6667 22.5 89 21.5C88.3333 20.5 88 19.3333 88 18ZM90 18C90 18.8333 90.1667 19.5 90.5 20C90.8333 20.5 91.3333 20.75 92 20.75C92.6667 20.75 93.1667 20.5 93.5 20C93.8333 19.5 94 18.8333 94 18C94 17.1667 93.8333 16.5 93.5 16C93.1667 15.5 92.6667 15.25 92 15.25C91.3333 15.25 90.8333 15.5 90.5 16C90.1667 16.5 90 17.1667 90 18Z" fill="#333333"/>
  <path d="M97 24V12H99V22H104V24H97Z" fill="#333333"/>
  <path d="M105 24V12H107V24H105Z" fill="#333333"/>
  <path d="M114 24H112V14H109V12H117V14H114V24Z" fill="#333333"/>
  <path d="M118 24V12H126V14H120V17H125V19H120V22H126V24H118Z" fill="#333333"/>
  <path d="M127 24V12H129V22H134V24H127Z" fill="#333333"/>
  <path d="M142 24H140V19H135V24H133V12H135V17H140V12H142V24Z" fill="#333333"/>
  <path d="M143 24V12H151V14H145V17H150V19H145V22H151V24H143Z" fill="#333333"/>
  <path d="M152 24V12H154V22H159V24H152Z" fill="#333333"/>
  <path d="M160 24V12H162V24H160Z" fill="#333333"/>
  <path d="M170 24H168V14H165V12H173V14H170V24Z" fill="#333333"/>
  <path d="M174 24V12H176V17H181V12H183V24H181V19H176V24H174Z" fill="#333333"/>
</svg>